<?xml version="1.0" standalone="no"?><svg xmlns:xlink="http://www.w3.org/1999/xlink" xmlns="http://www.w3.org/2000/svg" viewBox="0 0 1400 840.0151439349893" preserveAspectRatio="xMaxYMax slice"><g transform="scale(2.3662398420703923)"><rect x="0" y="0" width="591.6666666666666" height="355" fill="#ffffff"/><rect x="0" y="0" width="59.17" height="59.17" fill="#2a1f32"/><g transform="translate(0,0) scale(2.9585) rotate(0)"><path fill-rule="evenodd" clip-rule="evenodd" d="M10 20C15.5228 20 20 15.5228 20 10C20 4.47715 15.5228 0 10 0C4.47715 0 0 4.47715 0 10C0 15.5228 4.47715 20 10 20ZM10 17C13.866 17 17 13.866 17 10C17 6.13401 13.866 3 10 3C6.13401 3 3 6.13401 3 10C3 13.866 6.13401 17 10 17Z" fill="#382e3f"/></g><rect x="59.17" y="0" width="59.17" height="59.17" fill="#e9e0ee"/><rect x="59.17" y="0" width="59.17" height="59.17" fill="#f3f3f4"/><rect x="118.33" y="0" width="59.17" height="59.17" fill="#3c3243"/><g transform="translate(118.33,0) scale(2.9585) rotate(0)"><path fill-rule="evenodd" clip-rule="evenodd" d="M10 20C15.5228 20 20 15.5228 20 10C20 4.47715 15.5228 0 10 0C4.47715 0 0 4.47715 0 10C0 15.5228 4.47715 20 10 20ZM10 17C13.866 17 17 13.866 17 10C17 6.13401 13.866 3 10 3C6.13401 3 3 6.13401 3 10C3 13.866 6.13401 17 10 17Z" fill="#cbc8cd"/></g><rect x="177.5" y="0" width="59.17" height="59.17" fill="#6c6572"/><path d="M 177.5 0 A 59.17 59.17 0 0 1  236.67000000000002 59.17 L 177.5 0 A 59.17 59.17 0 0 0 236.67000000000002 59.17" fill="#89838d"/><rect x="236.67" y="0" width="59.17" height="59.17" fill="#f2f2f3"/><g transform="translate(236.67,0) scale(2.9585) rotate(0)"><path d="M10 0L20 10L10 20L0 10L10 0Z" fill="#7c7681"/></g><rect x="295.83" y="0" width="59.17" height="59.17" fill="#7e7783"/><rect x="295.83" y="0" width="59.17" height="59.17" fill="#b5b1b8"/><rect x="355" y="0" width="59.17" height="59.17" fill="#211529"/><g transform="translate(355,0) scale(2.9585) rotate(0)"><path d="M10 0L20 10L10 20L0 10L10 0Z" fill="#7d7682"/></g><rect x="414.17" y="0" width="59.17" height="59.17" fill="#b8b4ba"/><path d="M 414.17 59.17 A 59.17 59.17 0 0 1  473.34000000000003 0 L 414.17 59.17 A 59.17 59.17 0 0 0 473.34000000000003 0" fill="#4d4353"/><rect x="473.33" y="0" width="59.17" height="59.17" fill="#d9d7da"/><g transform="translate(473.33,0) scale(2.9585) rotate(0)"><path fill-rule="evenodd" clip-rule="evenodd" d="M10 20C15.5228 20 20 15.5228 20 10C20 4.47715 15.5228 0 10 0C4.47715 0 0 4.47715 0 10C0 15.5228 4.47715 20 10 20ZM10 17C13.866 17 17 13.866 17 10C17 6.13401 13.866 3 10 3C6.13401 3 3 6.13401 3 10C3 13.866 6.13401 17 10 17Z" fill="#ae90c2"/></g><rect x="532.5" y="0" width="59.17" height="59.17" fill="#b295c5"/><path d="M 532.5 0 A 59.17 59.17 0 0 1  591.67 59.17 L 532.5 0 A 59.17 59.17 0 0 0 591.67 59.17" fill="#827b86"/><rect x="0" y="59.17" width="59.17" height="59.17" fill="#f5f1f7"/><path d="M 0 59.17 A 59.17 59.17 0 0 1  59.17 118.34 L 0 59.17 A 59.17 59.17 0 0 0 59.17 118.34" fill="#534a59"/><rect x="59.17" y="59.17" width="59.17" height="59.17" fill="#956eaf"/><g transform="translate(59.17,59.17) scale(2.9585) rotate(0)"><path d="M10 0L20 10L10 20L0 10L10 0Z" fill="#f3eff6"/></g><rect x="118.33" y="59.17" width="59.17" height="59.17" fill="#aa8bbf"/><g transform="translate(118.33,59.17) scale(2.9585) rotate(0)"><path fill-rule="evenodd" clip-rule="evenodd" d="M10 20C15.5228 20 20 15.5228 20 10C20 4.47715 15.5228 0 10 0C4.47715 0 0 4.47715 0 10C0 15.5228 4.47715 20 10 20ZM10 17C13.866 17 17 13.866 17 10C17 6.13401 13.866 3 10 3C6.13401 3 3 6.13401 3 10C3 13.866 6.13401 17 10 17Z" fill="#c5afd3"/></g><rect x="177.5" y="59.17" width="59.17" height="59.17" fill="#746d79"/><rect x="177.5" y="59.17" width="59.17" height="59.17" fill="#a685bc"/><rect x="236.67" y="59.17" width="59.17" height="59.17" fill="#514857"/><g transform="translate(236.67,59.17) scale(2.9585) rotate(0)"><path fill-rule="evenodd" clip-rule="evenodd" d="M10 20C15.5228 20 20 15.5228 20 10C20 4.47715 15.5228 0 10 0C4.47715 0 0 4.47715 0 10C0 15.5228 4.47715 20 10 20ZM10 17C13.866 17 17 13.866 17 10C17 6.13401 13.866 3 10 3C6.13401 3 3 6.13401 3 10C3 13.866 6.13401 17 10 17Z" fill="#c6b1d4"/></g><rect x="295.83" y="59.17" width="59.17" height="59.17" fill="#33283a"/><path d="M 295.83 118.34 A 59.17 59.17 0 0 1  355 59.17 L 295.83 118.34 A 59.17 59.17 0 0 0 355 59.17" fill="#746d79"/><rect x="355" y="59.17" width="59.17" height="59.17" fill="#1e1226"/><g transform="translate(355,59.17) scale(2.9585) rotate(0)"><path d="M10 0L20 10L10 20L0 10L10 0Z" fill="#ad8ec1"/></g><rect x="414.17" y="59.17" width="59.17" height="59.17" fill="#e2d8e9"/><g transform="translate(414.17,59.17) scale(2.9585) rotate(0)"><path d="M10 0L20 10L10 20L0 10L10 0Z" fill="#c5c2c7"/></g><rect x="473.33" y="59.17" width="59.17" height="59.17" fill="#8c61a8"/><g transform="translate(473.33,59.17) scale(2.9585) rotate(0)"><path d="M10 0L20 10L10 20L0 10L10 0Z" fill="#a380ba"/></g><rect x="532.5" y="59.17" width="59.17" height="59.17" fill="#eae8ea"/><rect x="532.5" y="59.17" width="59.17" height="59.17" fill="#443a4b"/><rect x="0" y="118.33" width="59.17" height="59.17" fill="#966fb0"/><path d="M 0 177.5 A 59.17 59.17 0 0 1  59.17 118.33 L 0 177.5 A 59.17 59.17 0 0 0 59.17 118.33" fill="#e8e6e9"/><rect x="59.17" y="118.33" width="59.17" height="59.17" fill="#966fb0"/><rect x="59.17" y="118.33" width="59.17" height="59.17" fill="#80509f"/><rect x="118.33" y="118.33" width="59.17" height="59.17" fill="#b7b3b9"/><g transform="translate(118.33,118.33) scale(2.9585) rotate(0)"><path fill-rule="evenodd" clip-rule="evenodd" d="M10 20C15.5228 20 20 15.5228 20 10C20 4.47715 15.5228 0 10 0C4.47715 0 0 4.47715 0 10C0 15.5228 4.47715 20 10 20ZM10 17C13.866 17 17 13.866 17 10C17 6.13401 13.866 3 10 3C6.13401 3 3 6.13401 3 10C3 13.866 6.13401 17 10 17Z" fill="#7d4c9d"/></g><rect x="177.5" y="118.33" width="59.17" height="59.17" fill="#a786bd"/><g transform="translate(177.5,118.33) scale(2.9585) rotate(0)"><path d="M10 0L20 10L10 20L0 10L10 0Z" fill="#dad8db"/></g><rect x="236.67" y="118.33" width="59.17" height="59.17" fill="#77707c"/><path d="M 236.67 118.33 A 59.17 59.17 0 0 1  295.84 177.5 L 236.67 118.33 A 59.17 59.17 0 0 0 295.84 177.5" fill="#cbb7d8"/><rect x="295.83" y="118.33" width="59.17" height="59.17" fill="#f0eaf4"/><g transform="translate(295.83,118.33) scale(2.9585) rotate(0)"><path d="M10 0L20 10L10 20L0 10L10 0Z" fill="#9e7ab6"/></g><rect x="355" y="118.33" width="59.17" height="59.17" fill="#cbb8d8"/><rect x="355" y="118.33" width="59.17" height="59.17" fill="#eee7f2"/><rect x="414.17" y="118.33" width="59.17" height="59.17" fill="#dcdadd"/><g transform="translate(414.17,118.33) scale(2.9585) rotate(0)"><path d="M10 0L20 10L10 20L0 10L10 0Z" fill="#b295c5"/></g><rect x="473.33" y="118.33" width="59.17" height="59.17" fill="#eee7f2"/><path d="M 473.33 118.33 A 59.17 59.17 0 0 0 532.5 177.5 L 532.5 118.33" fill="#271c2f"/><rect x="532.5" y="118.33" width="59.17" height="59.17" fill="#b99fca"/><path d="M 532.5 177.5 A 59.17 59.17 0 0 0 591.67 118.33 L 532.5 118.33" fill="#966fb0"/><rect x="0" y="177.5" width="59.17" height="59.17" fill="#c6b1d4"/><path d="M 0 236.67000000000002 A 59.17 59.17 0 0 1  59.17 177.5 L 0 236.67000000000002 A 59.17 59.17 0 0 0 59.17 177.5" fill="#aa8bbf"/><rect x="59.17" y="177.5" width="59.17" height="59.17" fill="#d9cbe2"/><rect x="59.17" y="177.5" width="59.17" height="59.17" fill="#a989be"/><rect x="118.33" y="177.5" width="59.17" height="59.17" fill="#7e4e9e"/><path d="M 118.33 236.67000000000002 A 59.17 59.17 0 0 0 177.5 177.5 L 118.33 177.5" fill="#cebbda"/><rect x="177.5" y="177.5" width="59.17" height="59.17" fill="#dccfe4"/><rect x="177.5" y="177.5" width="59.17" height="59.17" fill="#b3afb6"/><rect x="236.67" y="177.5" width="59.17" height="59.17" fill="#f5f2f8"/><rect x="236.67" y="177.5" width="59.17" height="59.17" fill="#c0a8cf"/><rect x="295.83" y="177.5" width="59.17" height="59.17" fill="#443a4a"/><g transform="translate(295.83,177.5) scale(2.9585) rotate(0)"><path fill-rule="evenodd" clip-rule="evenodd" d="M10 20C15.5228 20 20 15.5228 20 10C20 4.47715 15.5228 0 10 0C4.47715 0 0 4.47715 0 10C0 15.5228 4.47715 20 10 20ZM10 17C13.866 17 17 13.866 17 10C17 6.13401 13.866 3 10 3C6.13401 3 3 6.13401 3 10C3 13.866 6.13401 17 10 17Z" fill="#ded1e6"/></g><rect x="355" y="177.5" width="59.17" height="59.17" fill="#9c77b4"/><path d="M 355 236.67000000000002 A 59.17 59.17 0 0 1  414.17 177.5 L 355 236.67000000000002 A 59.17 59.17 0 0 0 414.17 177.5" fill="#b99fca"/><rect x="414.17" y="177.5" width="59.17" height="59.17" fill="#9a959e"/><g transform="translate(414.17,177.5) scale(2.9585) rotate(0)"><path fill-rule="evenodd" clip-rule="evenodd" d="M10 20C15.5228 20 20 15.5228 20 10C20 4.47715 15.5228 0 10 0C4.47715 0 0 4.47715 0 10C0 15.5228 4.47715 20 10 20ZM10 17C13.866 17 17 13.866 17 10C17 6.13401 13.866 3 10 3C6.13401 3 3 6.13401 3 10C3 13.866 6.13401 17 10 17Z" fill="#9167ac"/></g><rect x="473.33" y="177.5" width="59.17" height="59.17" fill="#857f89"/><rect x="473.33" y="177.5" width="59.17" height="59.17" fill="#2e2335"/><rect x="532.5" y="177.5" width="59.17" height="59.17" fill="#f2edf5"/><path d="M 532.5 236.67000000000002 A 59.17 59.17 0 0 1  591.67 177.5 L 591.67 236.67000000000002" fill="#cdbbd9"/><rect x="0" y="236.67" width="59.17" height="59.17" fill="#322739"/><g transform="translate(0,236.67) scale(2.9585) rotate(0)"><path fill-rule="evenodd" clip-rule="evenodd" d="M10 20C15.5228 20 20 15.5228 20 10C20 4.47715 15.5228 0 10 0C4.47715 0 0 4.47715 0 10C0 15.5228 4.47715 20 10 20ZM10 17C13.866 17 17 13.866 17 10C17 6.13401 13.866 3 10 3C6.13401 3 3 6.13401 3 10C3 13.866 6.13401 17 10 17Z" fill="#4e4454"/></g><rect x="59.17" y="236.67" width="59.17" height="59.17" fill="#c0a8cf"/><path d="M 59.17 236.67 A 59.17 59.17 0 0 1  118.34 295.84 L 59.17 236.67 A 59.17 59.17 0 0 0 118.34 295.84" fill="#7a489b"/><rect x="118.33" y="236.67" width="59.17" height="59.17" fill="#766f7b"/><path d="M 118.33 295.84 A 59.17 59.17 0 0 1  177.5 236.67 L 118.33 295.84 A 59.17 59.17 0 0 0 177.5 236.67" fill="#efe9f3"/><rect x="177.5" y="236.67" width="59.17" height="59.17" fill="#665e6b"/><g transform="translate(177.5,236.67) scale(2.9585) rotate(0)"><path fill-rule="evenodd" clip-rule="evenodd" d="M10 20C15.5228 20 20 15.5228 20 10C20 4.47715 15.5228 0 10 0C4.47715 0 0 4.47715 0 10C0 15.5228 4.47715 20 10 20ZM10 17C13.866 17 17 13.866 17 10C17 6.13401 13.866 3 10 3C6.13401 3 3 6.13401 3 10C3 13.866 6.13401 17 10 17Z" fill="#33283a"/></g><rect x="236.67" y="236.67" width="59.17" height="59.17" fill="#9066ab"/><g transform="translate(236.67,236.67) scale(2.9585) rotate(0)"><path fill-rule="evenodd" clip-rule="evenodd" d="M10 20C15.5228 20 20 15.5228 20 10C20 4.47715 15.5228 0 10 0C4.47715 0 0 4.47715 0 10C0 15.5228 4.47715 20 10 20ZM10 17C13.866 17 17 13.866 17 10C17 6.13401 13.866 3 10 3C6.13401 3 3 6.13401 3 10C3 13.866 6.13401 17 10 17Z" fill="#b59ac7"/></g><rect x="295.83" y="236.67" width="59.17" height="59.17" fill="#bebbc0"/><g transform="translate(295.83,236.67) scale(2.9585) rotate(0)"><path d="M10 0L20 10L10 20L0 10L10 0Z" fill="#69616e"/></g><rect x="355" y="236.67" width="59.17" height="59.17" fill="#8c61a9"/><rect x="355" y="236.67" width="59.17" height="59.17" fill="#352a3c"/><rect x="414.17" y="236.67" width="59.17" height="59.17" fill="#9d79b5"/><path d="M 414.17 295.84 A 59.17 59.17 0 0 1  473.34000000000003 236.67 L 414.17 295.84 A 59.17 59.17 0 0 0 473.34000000000003 236.67" fill="#d4c4df"/><rect x="473.33" y="236.67" width="59.17" height="59.17" fill="#8254a1"/><g transform="translate(473.33,236.67) scale(2.9585) rotate(0)"><path fill-rule="evenodd" clip-rule="evenodd" d="M10 20C15.5228 20 20 15.5228 20 10C20 4.47715 15.5228 0 10 0C4.47715 0 0 4.47715 0 10C0 15.5228 4.47715 20 10 20ZM10 17C13.866 17 17 13.866 17 10C17 6.13401 13.866 3 10 3C6.13401 3 3 6.13401 3 10C3 13.866 6.13401 17 10 17Z" fill="#9b959e"/></g><rect x="532.5" y="236.67" width="59.17" height="59.17" fill="#cab6d7"/><rect x="532.5" y="236.67" width="59.17" height="59.17" fill="#a39ea7"/><rect x="0" y="295.83" width="59.17" height="59.17" fill="#6c6571"/><rect x="0" y="295.83" width="59.17" height="59.17" fill="#ccc9ce"/><rect x="59.17" y="295.83" width="59.17" height="59.17" fill="#68606e"/><g transform="translate(59.17,295.83) scale(2.9585) rotate(0)"><path fill-rule="evenodd" clip-rule="evenodd" d="M10 20C15.5228 20 20 15.5228 20 10C20 4.47715 15.5228 0 10 0C4.47715 0 0 4.47715 0 10C0 15.5228 4.47715 20 10 20ZM10 17C13.866 17 17 13.866 17 10C17 6.13401 13.866 3 10 3C6.13401 3 3 6.13401 3 10C3 13.866 6.13401 17 10 17Z" fill="#ac8ec1"/></g><rect x="118.33" y="295.83" width="59.17" height="59.17" fill="#d8d6d9"/><g transform="translate(118.33,295.83) scale(2.9585) rotate(0)"><path d="M10 0L20 10L10 20L0 10L10 0Z" fill="#f9f7fb"/></g><rect x="177.5" y="295.83" width="59.17" height="59.17" fill="#5f5664"/><path d="M 177.5 355 A 59.17 59.17 0 0 1  236.67000000000002 295.83 L 177.5 355 A 59.17 59.17 0 0 0 236.67000000000002 295.83" fill="#8658a3"/><rect x="236.67" y="295.83" width="59.17" height="59.17" fill="#fbf9fc"/><path d="M 236.67 355 A 59.17 59.17 0 0 1  295.84 295.83 L 236.67 355 A 59.17 59.17 0 0 0 295.84 295.83" fill="#b79dc9"/><rect x="295.83" y="295.83" width="59.17" height="59.17" fill="#c8b4d6"/><g transform="translate(295.83,295.83) scale(2.9585) rotate(0)"><path d="M10 0L20 10L10 20L0 10L10 0Z" fill="#cdbad9"/></g><rect x="355" y="295.83" width="59.17" height="59.17" fill="#928c96"/><rect x="355" y="295.83" width="59.17" height="59.17" fill="#cbb7d8"/><rect x="414.17" y="295.83" width="59.17" height="59.17" fill="#837c87"/><g transform="translate(414.17,295.83) scale(2.9585) rotate(0)"><path d="M10 0L20 10L10 20L0 10L10 0Z" fill="#e6e4e7"/></g><rect x="473.33" y="295.83" width="59.17" height="59.17" fill="#5b5261"/><rect x="473.33" y="295.83" width="59.17" height="59.17" fill="#382d3f"/><rect x="532.5" y="295.83" width="59.17" height="59.17" fill="#5f5665"/><g transform="translate(532.5,295.83) scale(2.9585) rotate(0)"><path d="M10 0L20 10L10 20L0 10L10 0Z" fill="#372c3e"/></g></g></svg>